<?xml version="1.0" encoding="utf-8"?>
<!-- Generator: Adobe Illustrator 16.0.0, SVG Export Plug-In . SVG Version: 6.00 Build 0)  -->
<!DOCTYPE svg PUBLIC "-//W3C//DTD SVG 1.1//EN" "http://www.w3.org/Graphics/SVG/1.1/DTD/svg11.dtd">
<svg version="1.1" id="Layer_1" xmlns="http://www.w3.org/2000/svg" xmlns:xlink="http://www.w3.org/1999/xlink" x="0px" y="0px"
	 width="144px" height="144px" viewBox="0 0 144 144" enable-background="new 0 0 144 144" xml:space="preserve">
<g>
	<g>
		<g>
			<path fill-rule="evenodd" clip-rule="evenodd" fill="#95CEC0" d="M125.436,42.606c0.882,28.826-9.778,52.746-34.117,72.741
				c-1.538-3.156-3.301-5.767-4.085-8.575c-5.357-19.043,1.752-34.475,19.084-46.812C113.272,55.012,120.39,50.209,125.436,42.606z"
				/>
		</g>
		<g>
			<path fill-rule="evenodd" clip-rule="evenodd" fill="#95CEC0" d="M129.057,53.916c3.024,28.058-9.544,51.274-41.792,66.729
				C113.094,103.213,126.896,81.191,129.057,53.916z"/>
		</g>
	</g>
	<g>
		<path fill="#ADA6A1" d="M33.833,43.591c0,0,0.03,0.388,0.088,1.117c0.068,0.727,0.166,1.788,0.286,3.139
			c0.127,1.353,0.324,2.99,0.526,4.864c0.221,1.868,0.511,3.979,0.831,6.273c0.338,2.292,0.756,4.762,1.22,7.369
			c0.479,2.603,1.084,5.328,1.749,8.133c0.679,2.806,1.483,5.676,2.399,8.56c0.934,2.88,1.992,5.774,3.245,8.586
			c1.223,2.829,2.646,5.582,4.246,8.177c0.795,1.31,1.666,2.556,2.538,3.778c0.904,1.209,1.839,2.38,2.824,3.478
			c1.978,2.198,4.099,4.193,6.349,5.852c2.264,1.642,4.593,3.009,6.892,4.081c2.3,1.063,4.539,1.856,6.593,2.417
			c1.016,0.322,2.007,0.495,2.906,0.733c0.916,0.191,1.76,0.341,2.526,0.488c0.775,0.108,1.469,0.207,2.069,0.306
			c0.607,0.099,1.129,0.134,1.548,0.185c0.844,0.098,1.296,0.144,1.296,0.144s-0.452,0.037-1.303,0.094
			c-0.851,0.073-2.104,0.107-3.712,0.097c-0.798-0.032-1.683-0.06-2.66-0.123c-0.967-0.095-2.017-0.177-3.124-0.373
			c-1.12-0.149-2.287-0.402-3.528-0.665c-0.608-0.151-1.23-0.337-1.873-0.509c-0.634-0.181-1.271-0.413-1.928-0.628
			c-2.611-0.9-5.34-2.151-7.954-3.802c-2.627-1.651-5.167-3.657-7.451-5.967c-2.307-2.304-4.366-4.887-6.156-7.648
			c-1.815-2.751-3.337-5.671-4.655-8.641c-1.294-2.985-2.384-6.013-3.249-9.038c-0.878-3.013-1.564-6.016-2.072-8.931
			c-0.533-2.905-0.864-5.74-1.114-8.423c-0.26-2.677-0.359-5.22-0.396-7.565c-0.059-2.339,0.009-4.484,0.095-6.391
			c0.073-1.899,0.23-3.55,0.363-4.91c0.128-1.358,0.295-2.422,0.395-3.149C33.754,43.973,33.833,43.591,33.833,43.591z"/>
	</g>
	<g>
		<path fill="#ADA6A1" d="M39.637,98.312c0,0-0.219,0.065-0.645,0.196c-0.211,0.065-0.473,0.142-0.775,0.234
			c-0.306,0.104-0.69,0.124-1.11,0.188c-0.217,0.033-0.446,0.059-0.682,0.095c-0.238,0.021-0.479,0.016-0.739,0.021
			c-0.517,0.003-1.084,0.026-1.677-0.073c-0.606-0.071-1.249-0.147-1.902-0.335c-0.331-0.089-0.67-0.172-1.015-0.269
			c-0.334-0.124-0.678-0.249-1.028-0.382c-0.713-0.241-1.373-0.639-2.101-0.993c-0.372-0.178-0.688-0.427-1.04-0.645
			c-0.34-0.232-0.716-0.441-1.036-0.708c-0.667-0.522-1.361-1.059-1.98-1.685c-0.309-0.315-0.654-0.607-0.945-0.952
			c-0.286-0.337-0.584-0.683-0.88-1.028c-1.141-1.416-2.192-2.988-2.988-4.699c-0.198-0.43-0.425-0.85-0.601-1.291
			c-0.175-0.436-0.34-0.885-0.506-1.33c-0.176-0.444-0.307-0.899-0.428-1.357l-0.409-1.444l-0.245-1.308l-0.124-0.653
			c-0.036-0.224-0.056-0.485-0.087-0.722c-0.054-0.488-0.105-0.971-0.152-1.453c-0.032-0.474-0.018-0.945-0.029-1.416
			c-0.045-1.87,0.199-3.71,0.598-5.452c0.229-0.861,0.438-1.721,0.775-2.521c0.276-0.817,0.668-1.584,1.032-2.318
			c0.17-0.37,0.423-0.709,0.625-1.06c0.222-0.335,0.397-0.688,0.655-0.994c0.497-0.614,0.919-1.233,1.459-1.738
			c0.261-0.259,0.512-0.512,0.756-0.758c0.271-0.229,0.538-0.441,0.803-0.645c0.505-0.434,1.057-0.765,1.571-1.07
			c0.495-0.322,1.021-0.532,1.494-0.736c0.237-0.09,0.45-0.202,0.676-0.271c0.229-0.062,0.444-0.124,0.648-0.186
			c0.41-0.104,0.761-0.235,1.09-0.27c0.325-0.037,0.6-0.071,0.82-0.099c0.44-0.052,0.677-0.076,0.677-0.076
			s-0.212,0.095-0.615,0.282c-0.195,0.091-0.438,0.198-0.719,0.326c-0.287,0.121-0.577,0.336-0.922,0.523
			c-0.169,0.104-0.345,0.209-0.526,0.313c-0.185,0.118-0.354,0.27-0.54,0.408c-0.359,0.292-0.781,0.56-1.139,0.953
			c-0.191,0.184-0.385,0.373-0.586,0.562c-0.208,0.182-0.37,0.428-0.562,0.644c-0.185,0.22-0.377,0.446-0.573,0.676
			c-0.164,0.258-0.342,0.509-0.517,0.773c-0.382,0.497-0.653,1.101-0.984,1.68c-0.17,0.289-0.281,0.619-0.428,0.937
			c-0.125,0.319-0.298,0.622-0.399,0.974c-0.218,0.682-0.489,1.348-0.636,2.088c-0.079,0.365-0.198,0.72-0.256,1.093
			c-0.062,0.371-0.127,0.751-0.189,1.135c-0.081,0.373-0.081,0.771-0.13,1.16c-0.028,0.392-0.097,0.783-0.097,1.18
			c0,0.793-0.053,1.597,0.021,2.411c0.027,0.401,0.027,0.812,0.074,1.215c0.057,0.387,0.101,0.78,0.148,1.179
			c0.021,0.196,0.031,0.382,0.077,0.599l0.128,0.649l0.266,1.311c-0.037-0.139-0.006-0.028-0.012-0.05l0.006,0.017l0.008,0.036
			l0.022,0.079l0.04,0.15l0.079,0.292l0.162,0.608c0.104,0.398,0.209,0.801,0.358,1.183c0.147,0.393,0.28,0.783,0.411,1.168
			c0.139,0.396,0.314,0.761,0.472,1.144c0.304,0.761,0.711,1.468,1.07,2.188c0.175,0.364,0.413,0.692,0.609,1.033
			c0.218,0.342,0.395,0.689,0.642,1.001c0.229,0.319,0.452,0.634,0.679,0.947c0.221,0.323,0.49,0.596,0.722,0.896
			c0.462,0.604,1.008,1.109,1.518,1.638c0.24,0.272,0.531,0.479,0.794,0.725c0.271,0.224,0.519,0.479,0.808,0.673
			c0.558,0.394,1.077,0.83,1.646,1.128c0.277,0.166,0.548,0.328,0.812,0.492c0.283,0.136,0.558,0.263,0.823,0.39
			c0.269,0.118,0.528,0.274,0.795,0.356c0.273,0.096,0.532,0.189,0.781,0.278c0.506,0.211,1.005,0.282,1.463,0.404
			c0.231,0.051,0.456,0.127,0.667,0.158c0.212,0.018,0.416,0.043,0.608,0.062c0.394,0.04,0.745,0.123,1.067,0.117
			c0.322,0.006,0.597,0.01,0.815,0.01C39.398,98.306,39.637,98.312,39.637,98.312z"/>
	</g>
	<g>
		<path fill="#ADA6A1" d="M35.335,41.296c1.347,1.098,2.866,2.033,4.437,2.868c1.604,0.897,3.331,1.614,5.038,2.332
			c0.871,0.338,1.757,0.64,2.635,0.959c0.885,0.298,1.791,0.559,2.676,0.842l0.678,0.211l0.684,0.17l1.37,0.345
			c0.455,0.119,0.912,0.228,1.366,0.353l1.385,0.285c0.928,0.189,1.85,0.396,2.778,0.565l2.821,0.434l1.398,0.217l1.423,0.157
			l2.839,0.322c1.898,0.17,3.812,0.264,5.718,0.436c1.92,0.064,3.83,0.147,5.754,0.263l5.82,0.114l2.857-0.065
			c0.955-0.023,1.917-0.006,2.875-0.1c1.922-0.141,3.858-0.254,5.765-0.555c0.948-0.144,1.916-0.252,2.855-0.443l2.823-0.593
			c0.936-0.203,1.849-0.495,2.769-0.752l1.376-0.402l1.335-0.483c0.888-0.328,1.796-0.625,2.646-1.011
			c0.863-0.379,1.746-0.716,2.563-1.163c1.67-0.822,3.298-1.72,4.783-2.748c0.384-0.25,0.752-0.506,1.109-0.777
			c0.356-0.271,0.727-0.523,1.061-0.814c0.334-0.286,0.688-0.55,0.998-0.85c0.318-0.279,0.652-0.597,0.889-0.856v1.496
			c-0.279-0.229-0.645-0.507-0.998-0.756c-0.348-0.258-0.729-0.498-1.099-0.741c-0.364-0.248-0.766-0.464-1.148-0.699
			c-0.379-0.234-0.773-0.453-1.178-0.659l-1.201-0.639l-1.242-0.587c-0.807-0.416-1.671-0.752-2.512-1.117
			c-1.712-0.685-3.424-1.358-5.205-1.898l-1.322-0.438l-1.353-0.363c-0.902-0.233-1.783-0.528-2.712-0.715l-2.752-0.595
			c-0.918-0.203-1.859-0.314-2.782-0.481c-1.851-0.355-3.747-0.512-5.628-0.738c-0.935-0.133-1.891-0.15-2.836-0.227l-2.841-0.197
			l-5.641-0.167L72.53,31.1c-1.88,0.119-3.755,0.193-5.646,0.317l-2.842,0.271l-1.418,0.133l-1.406,0.213l-2.82,0.396
			c-0.93,0.161-1.854,0.359-2.785,0.537l-1.396,0.278l-1.366,0.337l-1.378,0.334l-0.685,0.164l-0.674,0.204
			c-0.894,0.282-1.806,0.537-2.688,0.834c-0.878,0.313-1.765,0.613-2.643,0.951c-1.713,0.71-3.438,1.44-5.043,2.336
			C38.17,39.247,36.651,40.198,35.335,41.296z M34.783,41.182c1.093-1.469,2.485-2.719,3.982-3.874
			c0.735-0.585,1.544-1.101,2.332-1.639c0.8-0.53,1.662-0.98,2.492-1.473c0.857-0.457,1.734-0.877,2.609-1.319
			c0.891-0.415,1.814-0.768,2.717-1.157l0.685-0.281l0.701-0.248l1.398-0.493l1.409-0.488l1.439-0.403
			c0.963-0.259,1.924-0.54,2.895-0.786l2.93-0.634l1.474-0.303l1.485-0.231l2.983-0.452c2-0.261,4.042-0.409,6.066-0.599
			c1.964-0.099,3.92-0.151,5.88-0.218l0.168-0.008h0.093l0.188,0.008l0.377,0.003l0.753,0.021l1.516,0.034
			c1.004,0.03,2.012,0.03,3.022,0.09l3.015,0.247c1.003,0.095,2.008,0.157,3.007,0.324c1.997,0.3,3.995,0.53,5.959,0.975
			c0.983,0.205,1.977,0.381,2.949,0.628l2.915,0.764c0.973,0.234,1.913,0.589,2.865,0.878l1.427,0.446l1.398,0.538
			c0.92,0.362,1.862,0.696,2.759,1.118c0.895,0.407,1.812,0.778,2.671,1.261c1.743,0.896,3.45,1.856,5.029,2.97
			c0.404,0.263,0.8,0.543,1.18,0.839c0.385,0.296,0.781,0.567,1.146,0.878c0.367,0.31,0.747,0.603,1.103,0.934
			c0.369,0.325,0.699,0.631,1.075,1.025l0.782,0.817l-0.782,0.679c-0.418,0.368-0.786,0.635-1.19,0.929
			c-0.385,0.289-0.798,0.545-1.197,0.817c-0.399,0.276-0.824,0.507-1.234,0.762c-0.404,0.258-0.819,0.503-1.25,0.731l-1.266,0.693
			l-1.302,0.644c-0.852,0.45-1.754,0.823-2.632,1.22c-1.788,0.756-3.578,1.5-5.43,2.105l-1.381,0.482l-1.4,0.423
			c-0.943,0.266-1.854,0.613-2.815,0.838l-2.842,0.758c-0.947,0.263-1.916,0.431-2.875,0.668c-1.907,0.498-3.871,0.78-5.82,1.166
			c-0.972,0.201-1.978,0.297-2.971,0.438l-3.001,0.394c-0.987,0.107-1.96,0.147-2.937,0.225l-1.471,0.099l-0.734,0.056l-0.362,0.025
			l-0.189,0.009l-0.093,0.007H78.33c-1.995,0.019-3.998,0.019-5.995-0.016c-2.002-0.138-4.005-0.262-5.997-0.483l-2.987-0.404
			l-1.483-0.21l-1.475-0.291l-2.939-0.602c-0.966-0.236-1.934-0.508-2.897-0.765l-1.44-0.388c-0.476-0.15-0.942-0.312-1.415-0.474
			l-1.406-0.483l-0.697-0.242l-0.69-0.28c-0.91-0.377-1.833-0.729-2.722-1.138c-0.878-0.439-1.758-0.863-2.62-1.316
			c-0.832-0.492-1.694-0.938-2.492-1.471c-0.794-0.542-1.6-1.054-2.336-1.645c-1.494-1.164-2.891-2.422-3.95-3.9l-0.091-0.135
			L34.783,41.182z"/>
	</g>
</g>
</svg>
